<svg xmlns="http://www.w3.org/2000/svg" width="1600" height="1000" viewBox="0 0 1600 1000"><g font-family="Microsoft YaHei, sans-serif"><rect width="1600" height="1000" fill="#f7f8fa"/><rect x="0" y="0" width="18" height="1000" fill="#3157d5"/>
<text x="90" y="105" font-size="46" font-weight="700" fill="#17233f">两份调查，问的不是一件事</text><text x="92" y="153" font-size="23" fill="#657084">过去一年用过什么  /  工作中正在采用什么</text>
<text x="92" y="234" font-size="18" font-weight="700" fill="#3157d5">A · 使用经历</text><text x="840" y="234" font-size="18" font-weight="700" fill="#d56543">B · 工作采用</text>
<line x1="800" y1="215" x2="800" y2="825" stroke="#d9deea" stroke-width="2"/>
<text x="92" y="282" font-size="25" font-weight="700" fill="#17233f">Stack Overflow · 2026 · n=12,255 · 多选题</text>
<text x="840" y="282" font-size="25" font-weight="700" fill="#17233f">JetBrains · 2026 · 15,000+ · 加权样本</text>
<text x="96" y="365" font-size="23" fill="#26334a">Claude Code</text><rect x="96" y="388" width="520" height="20" rx="10" fill="#e5e8ee"/><rect x="96" y="388" width="486.6" height="20" rx="10" fill="#3157d5"/><text x="640" y="407" font-size="24" font-weight="700" fill="#17233f">65.5%</text><text x="96" y="510" font-size="23" fill="#26334a">GitHub Copilot</text><rect x="96" y="533" width="520" height="20" rx="10" fill="#e5e8ee"/><rect x="96" y="533" width="436.1" height="20" rx="10" fill="#3157d5"/><text x="640" y="552" font-size="24" font-weight="700" fill="#17233f">58.7%</text><text x="96" y="655" font-size="23" fill="#26334a">Codex</text><rect x="96" y="678" width="520" height="20" rx="10" fill="#e5e8ee"/><rect x="96" y="678" width="219.1" height="20" rx="10" fill="#3157d5"/><text x="640" y="697" font-size="24" font-weight="700" fill="#17233f">29.5%</text><text x="844" y="345" font-size="22" fill="#26334a">Claude Code</text><rect x="844" y="365" width="520" height="18" rx="9" fill="#e5e8ee"/><rect x="844" y="365" width="239.6" height="18" rx="9" fill="#df704b"/><text x="1400" y="383" font-size="23" font-weight="700" fill="#17233f">39%</text><text x="844" y="456" font-size="22" fill="#26334a">GitHub Copilot</text><rect x="844" y="476" width="520" height="18" rx="9" fill="#e5e8ee"/><rect x="844" y="476" width="129.0" height="18" rx="9" fill="#df704b"/><text x="1400" y="494" font-size="23" font-weight="700" fill="#17233f">21%</text><text x="844" y="567" font-size="22" fill="#26334a">Codex</text><rect x="844" y="587" width="520" height="18" rx="9" fill="#e5e8ee"/><rect x="844" y="587" width="98.3" height="18" rx="9" fill="#df704b"/><text x="1400" y="605" font-size="23" font-weight="700" fill="#17233f">16%</text><text x="844" y="678" font-size="22" fill="#26334a">OpenCode</text><rect x="844" y="698" width="520" height="18" rx="9" fill="#e5e8ee"/><rect x="844" y="698" width="43.0" height="18" rx="9" fill="#df704b"/><text x="1400" y="716" font-size="23" font-weight="700" fill="#17233f">7%</text><rect x="844" y="790" width="600" height="62" rx="14" fill="#f4e5df"/><text x="870" y="829" font-size="20" fill="#78442f">另有 31% 受访者称 Claude Code 最常用</text><text x="92" y="915" font-size="21" font-weight="700" fill="#303c53">口径不同：两组数据分开读，不合并成一张排名。</text><text x="92" y="953" font-size="17" fill="#788194">调查回答反映受访样本，不代表全部开发者。</text></g></svg>